<svg width="23" height="11" viewBox="0 0 23 11" fill="none" xmlns="http://www.w3.org/2000/svg">
<path d="M22.4495 4.87207C22.4493 4.8718 22.449 4.87149 22.4487 4.87123L17.8135 0.25832C17.4662 -0.0872489 16.9045 -0.0859629 16.5589 0.261336C16.2133 0.60859 16.2146 1.17026 16.5619 1.51587L19.674 4.6129H0.887098C0.397154 4.6129 0 5.01006 0 5.5C0 5.98994 0.397154 6.3871 0.887098 6.3871H19.6739L16.5619 9.48413C16.2146 9.82974 16.2133 10.3914 16.5589 10.7387C16.9046 11.086 17.4663 11.0872 17.8135 10.7417L22.4488 6.12877C22.449 6.12851 22.4493 6.1282 22.4496 6.12793C22.797 5.78117 22.7959 5.21768 22.4495 4.87207Z" fill="white"/>
</svg>
