<svg width="48" height="48" viewBox="0 0 48 48" fill="none" xmlns="http://www.w3.org/2000/svg">
<path d="M36.0033 5.73211C35.5428 4.35007 34.6929 3.13044 33.5559 2.21983C32.4188 1.30922 31.043 0.746382 29.5937 0.598987C28.5946 0.510531 27.589 0.671382 26.6673 1.06712C25.7456 1.46286 24.9365 2.08112 24.3125 2.86649C24.2096 2.96722 24.1054 3.06795 24 3.16867C23.8947 3.06784 23.7905 2.96711 23.6875 2.86649C23.0639 2.08066 22.2548 1.46207 21.333 1.06628C20.4112 0.670499 19.4055 0.509925 18.4062 0.598987C16.957 0.746382 15.5811 1.30922 14.4441 2.21983C13.307 3.13044 12.4572 4.35007 11.9967 5.73211C11.4544 7.20112 11.3416 8.79415 11.6715 10.3249C12.0013 11.8557 12.7602 13.2609 13.8594 14.3762L22.8864 23.5345C23.0319 23.6819 23.2052 23.799 23.3962 23.8789C23.5873 23.9588 23.7924 23.9999 23.9995 23.9999C24.2066 23.9999 24.4117 23.9588 24.6028 23.8789C24.7939 23.799 24.9672 23.6819 25.1126 23.5345L34.1406 14.3762C35.2397 13.2609 35.9986 11.8557 36.3285 10.3249C36.6583 8.79415 36.5455 7.20112 36.0033 5.73211ZM31.9147 12.182L24 20.2112L16.0845 12.182C15.4026 11.4829 14.9329 10.6046 14.7302 9.6493C14.5275 8.69395 14.6 7.7007 14.9394 6.78492C15.2079 5.96088 15.7088 5.23193 16.3817 4.68569C17.0546 4.13945 17.871 3.79915 18.7326 3.70571C19.9887 3.58242 20.5708 4.20117 21.5139 5.11196C21.9981 5.59708 22.5107 6.05309 23.0489 6.47758C23.3216 6.68687 23.6557 6.80032 23.9995 6.80032C24.3433 6.80032 24.6774 6.68687 24.9501 6.47758C25.4883 6.05309 26.0009 5.59708 26.4851 5.11196C27.612 4.02242 28.1079 3.59071 29.2664 3.70571C30.1282 3.79901 30.9447 4.13924 31.6178 4.68549C32.2908 5.23174 32.7918 5.96077 33.0604 6.78492C33.3998 7.70074 33.4723 8.69406 33.2695 9.64944C33.0666 10.6048 32.5968 11.483 31.9147 12.182Z" fill="#8DC63F"/>
<path d="M15.1377 26.9908C14.4695 26.3252 13.6226 25.8675 12.6997 25.6733C11.7768 25.479 10.8173 25.5565 9.9375 25.8962V19.3125C9.9375 18.0693 9.44364 16.877 8.56456 15.9979C7.68549 15.1189 6.4932 14.625 5.25 14.625C4.0068 14.625 2.81451 15.1189 1.93544 15.9979C1.05636 16.877 0.5625 18.0693 0.5625 19.3125V36.5C0.562484 36.7052 0.602909 36.9084 0.681464 37.0979C0.760019 37.2875 0.875162 37.4597 1.02031 37.6047L5.25 41.8345V45.875C5.25 46.2894 5.41462 46.6868 5.70765 46.9799C6.00067 47.2729 6.3981 47.4375 6.8125 47.4375C7.2269 47.4375 7.62433 47.2729 7.91735 46.9799C8.21038 46.6868 8.375 46.2894 8.375 45.875V41.1875C8.37502 40.9823 8.33459 40.7791 8.25604 40.5896C8.17748 40.4 8.06234 40.2278 7.91719 40.0828L3.6875 35.853V19.3125C3.6875 18.8981 3.85212 18.5007 4.14515 18.2076C4.43817 17.9146 4.8356 17.75 5.25 17.75C5.6644 17.75 6.06183 17.9146 6.35485 18.2076C6.64788 18.5007 6.8125 18.8981 6.8125 19.3125V30.25C6.79097 30.9216 6.90652 31.5905 7.15208 32.2159C7.39765 32.8413 7.76809 33.4101 8.24078 33.8877L11.9578 37.6047C12.2525 37.8893 12.6472 38.0468 13.0569 38.0432C13.4666 38.0397 13.8585 37.8754 14.1482 37.5857C14.4379 37.296 14.6022 36.9041 14.6057 36.4944C14.6093 36.0847 14.4518 35.69 14.1672 35.3953L10.4502 31.6783C10.2855 31.516 10.1546 31.3227 10.065 31.1096C9.97542 30.8965 9.92886 30.6678 9.92803 30.4366C9.9272 30.2055 9.97213 29.9764 10.0602 29.7627C10.1483 29.5489 10.2778 29.3547 10.4413 29.1913C10.6047 29.0278 10.7989 28.8983 11.0127 28.8102C11.2264 28.7221 11.4555 28.6772 11.6866 28.678C11.9178 28.6789 12.1465 28.7254 12.3596 28.815C12.5727 28.9046 12.766 29.0355 12.9283 29.2002L19.3125 35.5845V45.875C19.3125 46.2894 19.4771 46.6868 19.7701 46.9799C20.0632 47.2729 20.4606 47.4375 20.875 47.4375C21.2894 47.4375 21.6868 47.2729 21.9799 46.9799C22.2729 46.6868 22.4375 46.2894 22.4375 45.875V34.9375C22.4375 34.7323 22.3971 34.5291 22.3185 34.3396C22.24 34.15 22.1248 33.9778 21.9797 33.8328L15.1377 26.9908Z" fill="#8DC63F"/>
<path d="M42.75 14.625C41.5072 14.6264 40.3157 15.1207 39.4369 15.9994C38.5582 16.8782 38.0639 18.0697 38.0625 19.3125V25.8964C37.1828 25.5565 36.2233 25.4789 35.3004 25.673C34.3775 25.8671 33.5306 26.3246 32.8623 26.9902L26.0203 33.8328C25.8752 33.9778 25.76 34.15 25.6815 34.3396C25.6029 34.5291 25.5625 34.7323 25.5625 34.9375V45.875C25.5625 46.2894 25.7271 46.6868 26.0201 46.9799C26.3132 47.2729 26.7106 47.4375 27.125 47.4375C27.5394 47.4375 27.9368 47.2729 28.2299 46.9799C28.5229 46.6868 28.6875 46.2894 28.6875 45.875V35.5845L35.0717 29.2002C35.4011 28.8754 35.8456 28.6941 36.3082 28.6957C36.7708 28.6974 37.2139 28.8819 37.541 29.209C37.8681 29.5361 38.0526 29.9792 38.0543 30.4418C38.0559 30.9044 37.8746 31.3489 37.5498 31.6783L33.8328 35.3953C33.5482 35.69 33.3907 36.0847 33.3943 36.4944C33.3978 36.9041 33.5621 37.296 33.8518 37.5857C34.1415 37.8754 34.5334 38.0397 34.9431 38.0432C35.3528 38.0468 35.7475 37.8893 36.0422 37.6047L39.7592 33.8877C40.232 33.4102 40.6024 32.8414 40.848 32.2159C41.0935 31.5905 41.2091 30.9216 41.1875 30.25V19.3125C41.1875 18.8981 41.3521 18.5007 41.6451 18.2076C41.9382 17.9146 42.3356 17.75 42.75 17.75C43.1644 17.75 43.5618 17.9146 43.8549 18.2076C44.1479 18.5007 44.3125 18.8981 44.3125 19.3125V35.853L40.0828 40.0828C39.9377 40.2278 39.8225 40.4 39.744 40.5896C39.6654 40.7791 39.625 40.9823 39.625 41.1875V45.875C39.625 46.2894 39.7896 46.6868 40.0826 46.9799C40.3757 47.2729 40.7731 47.4375 41.1875 47.4375C41.6019 47.4375 41.9993 47.2729 42.2924 46.9799C42.5854 46.6868 42.75 46.2894 42.75 45.875V41.8345L46.9797 37.6047C47.1248 37.4597 47.24 37.2875 47.3185 37.0979C47.3971 36.9084 47.4375 36.7052 47.4375 36.5V19.3125C47.4361 18.0697 46.9418 16.8782 46.0631 15.9994C45.1843 15.1207 43.9928 14.6264 42.75 14.625Z" fill="#8DC63F"/>
</svg>
