<svg width="40" height="38" viewBox="0 0 40 38" fill="none" xmlns="http://www.w3.org/2000/svg">
<path d="M36.6437 3.5436C32.0231 -1.1031 24.3974 -0.872113 19.9981 3.95796C15.5985 -0.871942 7.97313 -1.10319 3.3525 3.54368C-1.24231 8.11951 -1.08578 15.6545 3.64846 20.071C1.22641 22.3842 2.61397 26.541 5.91064 26.9462C5.71317 29.2036 7.63451 31.2737 9.90721 31.2353C10.0466 33.7203 12.5408 35.4992 14.932 34.8425C15.7165 37.8031 19.4878 38.8147 21.6515 36.6357C22.8803 35.4143 23.8575 34.644 23.9198 32.7941C25.9502 32.7375 27.707 30.9569 27.738 28.9276C29.7879 28.896 31.5739 27.1094 31.6054 25.0601C33.732 25.0278 35.5759 23.1084 35.4769 20.9416L36.6436 19.775C41.1187 15.3 41.1187 8.01855 36.6437 3.5436ZM5.40755 21.9388L6.50333 20.843C6.78655 20.5598 7.15843 20.4182 7.53047 20.4182C8.80612 20.4098 9.47199 21.9869 8.55744 22.8971L7.46165 23.9929C6.04324 25.2988 4.10155 23.3578 5.40755 21.9388ZM8.46297 27.2203C8.46297 26.8322 8.61412 26.4675 8.88845 26.1931L9.98483 25.0968C10.2591 24.8228 10.6236 24.672 11.0113 24.672C12.2978 24.6697 12.9499 26.2432 12.0383 27.1515L11.0715 28.1184C10.7759 28.4533 10.37 28.68 9.91541 28.6727C9.13482 28.6888 8.44682 28.001 8.46297 27.2203ZM12.8849 31.9859C12.3215 31.4453 12.3215 30.4725 12.8849 29.9319L13.8518 28.9649C14.4155 28.2957 15.4051 28.2086 16.0349 28.836C16.6012 29.4023 16.6012 30.3237 16.0349 30.8901L14.939 31.986C14.3728 32.5525 13.4513 32.5524 12.8849 31.9859ZM20.9339 33.7265L19.8381 34.8223C19.5638 35.0966 19.199 35.2478 18.811 35.2478C18.423 35.2478 18.0582 35.0966 17.7839 34.8223C17.2205 34.2816 17.2203 33.3088 17.784 32.7682L18.8797 31.6724C19.446 31.106 20.3675 31.106 20.9338 31.6723C21.4973 32.213 21.4974 33.1858 20.9339 33.7265ZM32.4883 22.0753C31.9476 22.6388 30.9749 22.6389 30.4342 22.0753L24.7273 16.3684L22.9139 18.1819L28.6208 23.8888C29.1871 24.4552 29.1871 25.3765 28.6208 25.9429C28.0544 26.5094 27.133 26.5093 26.5667 25.9429L20.9565 20.3328L20.8598 20.236L19.0463 22.0494L19.1431 22.1462L24.7532 27.7564C25.3196 28.3227 25.3196 29.2442 24.7532 29.8106C24.1869 30.3769 23.2654 30.3769 22.699 29.8106L22.6979 29.8117C21.6559 28.8043 20.1996 28.4726 18.8843 28.8166C18.4656 27.1056 16.7456 25.8103 15.0161 25.848C14.9322 24.0064 13.3753 22.3428 11.5354 22.1441C11.7782 18.9844 8.30807 16.8085 5.56955 18.365C1.75559 14.9581 1.52066 8.97747 5.16613 5.35706C8.79065 1.70715 14.7794 1.94899 18.1848 5.77142L15.0144 8.94182L17.5549 11.4823C19.5063 13.4339 22.5134 13.7024 24.7555 12.2881L32.4886 20.0212C33.0546 20.5875 33.0546 21.509 32.4883 22.0753ZM34.8303 17.9616L34.4395 18.3523C34.395 18.3032 34.3491 18.255 34.3019 18.2078L24.8563 8.76213L23.9496 9.66881C22.6866 10.9318 20.6314 10.932 19.3682 9.66881L18.6412 8.94182L22.2259 5.35706C30.9338 -2.6577 42.8433 9.25933 34.8303 17.9616Z" fill="white"/>
</svg>
