<svg width="20" height="20" viewBox="0 0 20 20" fill="none" xmlns="http://www.w3.org/2000/svg">
<path d="M17.0696 2.92787C13.1638 -0.976782 6.83213 -0.975845 2.92748 2.93001C-0.977164 6.83587 -0.976226 13.1675 2.92963 17.0722C6.83549 20.9768 13.1671 20.9759 17.0718 17.07C18.947 15.1942 20.0002 12.6502 19.9996 9.99787C19.9991 7.34591 18.9451 4.80279 17.0696 2.92787ZM15.1443 13.9299C15.1439 13.9303 15.1434 13.9308 15.143 13.9312V13.9279L14.6363 14.4312C13.981 15.0948 13.0267 15.3678 12.1196 15.1512C11.2057 14.9066 10.337 14.5172 9.54627 13.9979C8.81166 13.5284 8.13088 12.9796 7.51627 12.3612C6.95077 11.7999 6.44272 11.1835 5.99959 10.5212C5.51491 9.80865 5.13127 9.0324 4.85959 8.21455C4.54815 7.25377 4.80623 6.19951 5.52627 5.49123L6.11959 4.89791C6.28456 4.7322 6.5526 4.73162 6.71827 4.89658C6.7187 4.89701 6.71916 4.89744 6.71959 4.89791L8.59291 6.77123C8.75862 6.93619 8.7592 7.20423 8.59424 7.3699C8.59381 7.37033 8.59338 7.37076 8.59291 7.37123L7.49291 8.47123C7.17729 8.78341 7.1376 9.27951 7.39959 9.63791C7.79745 10.1839 8.23772 10.6977 8.71627 11.1746C9.24983 11.7104 9.82987 12.1979 10.4496 12.6313C10.8077 12.881 11.2931 12.8389 11.6029 12.5313L12.6662 11.4513C12.8312 11.2856 13.0992 11.285 13.2649 11.4499C13.2653 11.4504 13.2658 11.4508 13.2662 11.4513L15.1429 13.3313C15.3087 13.4962 15.3092 13.7642 15.1443 13.9299Z" fill="#FBB040"/>
</svg>
