<svg width="30" height="30" viewBox="0 0 30 30" fill="none" xmlns="http://www.w3.org/2000/svg">
<path d="M0 6.23328V23.7667C0 27.2093 2.79071 30 6.23328 30H23.7667C27.2093 30 30 27.2093 30 23.7667V6.23328C30 2.79071 27.2093 0 23.7667 0H6.23328C2.79071 0 0 2.79071 0 6.23328ZM18.1778 23.5001C10.7783 26.0532 3.94684 19.2217 6.49988 11.8222C7.36011 9.32831 9.32812 7.36011 11.822 6.49988C19.2217 3.94684 26.0532 10.7783 23.5001 18.178C22.6399 20.6719 20.6719 22.6399 18.1778 23.5001ZM25.4097 5.92859C25.292 6.5451 24.7819 6.90381 24.2542 6.90381C23.933 6.90381 23.6056 6.77124 23.3549 6.48358C23.3328 6.45813 23.3121 6.43085 23.2938 6.40247C23.035 6.00696 23.027 5.53711 23.2469 5.15607C23.4025 4.88635 23.6537 4.69373 23.9546 4.61316C24.2551 4.53223 24.5693 4.57379 24.8386 4.72961C25.2198 4.94934 25.4476 5.36041 25.4216 5.83173C25.4198 5.86395 25.416 5.89673 25.4097 5.92859Z" fill="#FBB040"/>
<path d="M15 7.71216C10.9812 7.71216 7.71204 10.9813 7.71204 15.0001C7.71204 19.0189 10.9812 22.2881 15 22.2881C19.0188 22.2881 22.288 19.0189 22.288 15.0001C22.288 10.9813 19.0188 7.71216 15 7.71216Z" fill="#FBB040"/>
</svg>
