<svg width="37" height="37" viewBox="0 0 37 37" fill="none" xmlns="http://www.w3.org/2000/svg">
<path d="M29.5657 4.58353C26.61 1.62779 22.6801 0 18.5001 0C14.3201 0 10.3901 1.62779 7.43448 4.58353C4.47874 7.53934 2.85095 11.4692 2.85095 15.6491C2.85095 24.105 10.8463 31.1383 15.1417 34.9168C15.7386 35.4419 16.2541 35.8953 16.6648 36.2789C17.1793 36.7596 17.8397 36.9999 18.5 36.9999C19.1605 36.9999 19.8208 36.7596 20.3354 36.2789C20.746 35.8953 21.2615 35.4419 21.8584 34.9168C26.1538 31.1382 34.1492 24.105 34.1492 15.6491C34.1491 11.4692 32.5214 7.53934 29.5657 4.58353ZM20.4269 33.2895C19.8169 33.8261 19.2901 34.2895 18.8558 34.6952C18.6563 34.8814 18.3438 34.8815 18.1442 34.6952C17.7099 34.2894 17.1831 33.826 16.5731 33.2894C12.5349 29.7372 5.0182 23.125 5.0182 15.6492C5.0182 8.21532 11.0661 2.16747 18.5 2.16747C25.9338 2.16747 31.9816 8.21532 31.9816 15.6492C31.9817 23.125 24.4651 29.7372 20.4269 33.2895Z" fill="white"/>
<path d="M18.5001 8.16162C14.6974 8.16162 11.6037 11.2552 11.6037 15.0579C11.6037 18.8606 14.6974 21.9543 18.5001 21.9543C22.3028 21.9543 25.3964 18.8606 25.3964 15.0579C25.3964 11.2552 22.3028 8.16162 18.5001 8.16162ZM18.5001 19.7868C15.8925 19.7868 13.7711 17.6654 13.7711 15.0579C13.7711 12.4504 15.8925 10.3289 18.5001 10.3289C21.1077 10.3289 23.229 12.4504 23.229 15.0579C23.229 17.6654 21.1077 19.7868 18.5001 19.7868Z" fill="white"/>
</svg>
