<svg width="40" height="40" viewBox="0 0 40 40" fill="none" xmlns="http://www.w3.org/2000/svg">
<g clip-path="url(#clip0)">
<path d="M39.9971 15.4935C39.9986 15.3639 39.9992 15.2342 39.9992 15.1045C39.9992 12.8182 39.1943 10.6479 37.7197 8.92357C37.8209 8.43193 37.8721 7.92998 37.8721 7.42436C37.8721 3.33141 34.5324 0.00158691 30.4274 0.00158691C26.3223 0.00158691 22.9826 3.33141 22.9826 7.42436C22.9826 7.93006 23.0337 8.43193 23.135 8.92357C22.5417 9.61731 22.0571 10.3833 21.6895 11.1999C21.521 11.2756 21.3572 11.3605 21.1984 11.4545C20.2992 10.9989 19.3055 10.7611 18.2832 10.7611C16.3246 10.7611 14.4745 11.6616 13.2574 13.1616C12.8789 13.071 12.4897 13.0254 12.0928 13.0254C11.6651 13.0254 11.2471 13.0782 10.8422 13.1828C9.62586 11.6693 7.77063 10.7611 5.79861 10.7611C3.45355 10.7611 1.28809 12.0356 0.14716 14.087C-0.167447 14.6526 0.0361454 15.3661 0.601689 15.6807C0.782079 15.7809 0.977468 15.8287 1.1702 15.8287C1.58184 15.8287 1.98113 15.6114 2.19543 15.2262C2.92316 13.9177 4.30386 13.1049 5.79869 13.1049C7.27126 13.1049 8.6418 13.8996 9.37547 15.1787C9.68406 15.7168 10.3586 15.921 10.9138 15.6449C11.2816 15.462 11.6783 15.3692 12.0928 15.3692C12.4855 15.3692 12.8634 15.4529 13.2159 15.618C13.7645 15.8748 14.4185 15.6713 14.7243 15.1484C15.4616 13.8879 16.8253 13.1049 18.2831 13.1049C19.114 13.1049 19.9145 13.351 20.5981 13.8165C20.6998 13.8857 20.8095 13.9364 20.9227 13.9702C20.8784 14.3441 20.8554 14.7227 20.8554 15.1045C20.8554 16.5363 21.0038 17.9864 21.5097 19.3351C21.729 19.9198 22.0005 20.4753 22.3815 20.9701C22.5373 21.1726 23.1929 21.7821 23.1349 22.0636C23.0337 22.5553 22.9825 23.0572 22.9825 23.5629C22.9825 27.2583 25.7051 30.3313 29.2554 30.8934V37.6546H21.5617V35.2328H21.8742C22.5214 35.2328 23.0461 34.7081 23.0461 34.0609C23.0461 33.4137 22.5214 32.8891 21.8742 32.8891H21.6398V27.7328C21.6398 27.0856 21.1152 26.561 20.468 26.561H2.57746C1.93027 26.561 1.40559 27.0856 1.40559 27.7328V32.8891H1.17122C0.524033 32.8891 -0.000651227 33.4137 -0.000651227 34.0609C-0.000651227 34.7081 0.524033 35.2328 1.17122 35.2328H1.48372V37.6546H1.17122C0.524033 37.6546 -0.000651227 38.1793 -0.000651227 38.8265C-0.000651227 39.4737 0.524033 39.9984 1.17122 39.9984H38.8272C39.4744 39.9984 39.9991 39.4737 39.9991 38.8265C39.9991 38.1793 39.4744 37.6546 38.8272 37.6546H31.5991V30.8934C35.1493 30.3313 37.8719 27.2583 37.8719 23.5629C37.8719 23.0572 37.8208 22.5553 37.7195 22.0636C38.6068 21.0261 39.2672 19.8006 39.6394 18.4867C39.9167 17.5081 39.9851 16.5033 39.9971 15.4935ZM3.7494 28.9046H19.2962V32.889H3.7494V28.9046ZM3.82761 35.2327H19.2181V37.6546H3.82761V35.2327ZM37.6705 15.8833C37.5858 17.7566 36.8919 19.5955 35.5928 20.9172C35.2916 21.2237 35.1823 21.6704 35.308 22.0812C35.4543 22.5597 35.5284 23.0582 35.5284 23.5628C35.5284 25.9617 33.8488 27.9762 31.5993 28.505V17.5441C31.7203 17.4879 31.834 17.4112 31.9338 17.3114L34.7342 14.511C35.1919 14.0534 35.1919 13.3114 34.7342 12.8537C34.2766 12.3961 33.5346 12.3961 33.077 12.8537L31.5993 14.3313V12.0771C31.5993 11.4299 31.0746 10.9052 30.4275 10.9052C29.7803 10.9052 29.2556 11.4299 29.2556 12.0771V18.9916L28.044 17.7801C27.5865 17.3225 26.8444 17.3225 26.3868 17.7801C25.9291 18.2377 25.9291 18.9797 26.3868 19.4373L29.1872 22.2378C29.2092 22.2597 29.2324 22.2797 29.2556 22.2996V28.5049C27.0061 27.9762 25.3264 25.9618 25.3264 23.5627C25.3264 23.0581 25.4005 22.5597 25.5469 22.0811C25.6725 21.6702 25.5632 21.2235 25.262 20.9171C23.9319 19.5638 23.1994 17.7758 23.1994 15.8826C23.1994 15.6231 23.1994 15.3638 23.1994 15.1045C23.1994 13.2113 23.9319 11.4232 25.262 10.07C25.5632 9.76348 25.6726 9.31677 25.5469 8.90591C25.4005 8.4274 25.3264 7.92896 25.3264 7.42436C25.3264 4.62375 27.6147 2.34532 30.4275 2.34532C33.2402 2.34532 35.5284 4.62375 35.5284 7.42436C35.5284 7.92896 35.4543 8.4274 35.308 8.90591C35.1824 9.31677 35.2916 9.76348 35.5927 10.0699C37.0762 11.5795 37.7669 13.7536 37.6705 15.8833Z" fill="white"/>
</g>
<defs>
<clipPath id="clip0">
<rect width="40" height="40" fill="white"/>
</clipPath>
</defs>
</svg>
