<svg width="40" height="40" viewBox="0 0 40 40" fill="none" xmlns="http://www.w3.org/2000/svg">
<path d="M18.287 36.8072H4.71823C4.21409 36.8072 3.75472 36.5735 3.45768 36.166C3.16058 35.7584 3.07878 35.2491 3.23315 34.7689C4.77472 29.9762 9.47597 26.629 14.6657 26.629C17.0804 26.629 19.3993 27.3562 21.3717 28.7318C22.0782 29.2245 23.0503 29.0513 23.5432 28.3448C24.0359 27.6384 23.8627 26.6662 23.1562 26.1734C22.1798 25.4924 21.1367 24.9369 20.0455 24.5127C21.4973 23.1927 22.4604 21.3444 22.6278 19.2746C24.8291 17.1302 27.7146 15.9552 30.8078 15.9552C33.2225 15.9552 35.5414 16.6824 37.5139 18.058C38.2203 18.5508 39.1924 18.3776 39.6853 17.6711C40.178 16.9646 40.0048 15.9925 39.2983 15.4997C38.3219 14.8187 37.2788 14.2631 36.1876 13.839C37.7891 12.3829 38.7959 10.2838 38.7959 7.95398C38.796 3.5682 35.2278 0 30.8419 0C26.456 0 22.8878 3.5682 22.8878 7.95414C22.8878 10.2745 23.8866 12.3661 25.4768 13.8215C25.2592 13.9052 25.0432 13.9943 24.8288 14.0887C23.8528 14.5181 22.9349 15.0453 22.0817 15.6655C20.9046 12.7424 18.0391 10.6738 14.6997 10.6738C10.3138 10.6738 6.74565 14.242 6.74565 18.628C6.74565 20.9416 7.73862 23.0277 9.32065 24.4825C5.09034 26.0678 1.66026 29.4723 0.263857 33.8141C-0.199268 35.254 0.0460442 36.7809 0.936982 38.0034C1.82776 39.2256 3.20589 39.9266 4.71831 39.9266H18.2871C19.1485 39.9266 19.8467 39.2284 19.8467 38.367C19.8467 37.5057 19.1483 36.8072 18.287 36.8072ZM30.842 3.11922C33.5079 3.11922 35.6768 5.28812 35.6768 7.95406C35.6768 10.62 33.5079 12.7889 30.842 12.7889C28.176 12.7889 26.0071 10.62 26.0071 7.95406C26.0071 5.28812 28.176 3.11922 30.842 3.11922ZM14.6998 13.793C17.3657 13.793 19.5346 15.9619 19.5346 18.6278C19.5346 21.2938 17.3657 23.4627 14.6998 23.4627C12.0339 23.4627 9.86495 21.2938 9.86495 18.6278C9.86495 15.9619 12.0339 13.793 14.6998 13.793Z" fill="white"/>
<path d="M39.3138 25.4751C38.6134 24.9737 37.6391 25.1349 37.1378 25.8354L29.4503 36.5734C29.2403 36.8169 28.9772 36.8695 28.8363 36.8788C28.6912 36.8888 28.4095 36.8699 28.1679 36.64L23.1911 31.8613C22.5697 31.2645 21.5823 31.2848 20.986 31.906C20.3893 32.5273 20.4094 33.5146 21.0306 34.1112L26.0124 38.8946C26.7585 39.6049 27.7545 40 28.7792 40C28.8672 40 28.9555 39.9971 29.0438 39.9912C30.16 39.9168 31.2022 39.374 31.9031 38.502C31.9213 38.4794 31.9386 38.4563 31.9556 38.4328L39.6742 27.6511C40.1755 26.9507 40.0142 25.9765 39.3138 25.4751Z" fill="white"/>
</svg>
