<svg width="50" height="50" viewBox="0 0 50 50" fill="none" xmlns="http://www.w3.org/2000/svg">
<path d="M20 36.2499L35 24.9999L20 13.7499V36.2499Z" fill="white"/>
<path d="M24.9999 0C11.1875 0 0 11.1875 0 24.9999C0 38.8124 11.1875 49.9999 24.9999 49.9999C38.8124 49.9999 50 38.8125 50 24.9999C50 11.1874 38.8125 0 24.9999 0ZM24.9999 45C13.9749 45 4.99992 36.0249 4.99992 24.9999C4.99992 13.9749 13.9749 5.00004 24.9999 5.00004C36.0249 5.00004 45 13.9749 45 24.9999C45 36.0249 36.0249 45 24.9999 45Z" fill="white"/>
</svg>
