<svg width="50" height="50" viewBox="0 0 50 50" fill="none" xmlns="http://www.w3.org/2000/svg">
<path d="M49.571 24.4109C46.7091 21.5489 42.0759 21.5479 39.2133 24.4107L32.6808 30.9409C32.2087 31.413 31.6484 31.7645 31.0367 31.9798C31.8494 30.8006 32.3258 29.3723 32.3258 27.835C32.3258 27.026 31.6699 26.3701 30.861 26.3701H15.4262C13.4697 26.3701 11.6305 27.1319 10.2472 28.5153L0.429019 38.3341C-0.122739 38.8858 -0.145102 39.7733 0.378237 40.3522L8.66466 49.5176C9.22121 50.1332 10.1758 50.1629 10.7699 49.5878L16.1751 44.3565C16.4497 44.0914 16.811 43.9454 17.1927 43.9454H29.0853C31.961 43.9454 34.7219 42.727 36.659 40.6039L49.616 26.4354C50.1449 25.857 50.125 24.965 49.571 24.4109ZM9.8215 46.4287L3.48556 39.4207L6.46281 36.4433L12.8296 43.5174L9.8215 46.4287ZM34.496 38.628C33.1115 40.1454 31.1395 41.0156 29.0854 41.0156H17.1928C16.4247 41.0156 15.6844 41.2136 15.031 41.5839L8.53722 34.3687L12.3188 30.5868C13.1487 29.7567 14.2523 29.2997 15.4261 29.2968H29.1447C28.5404 31.0034 26.9125 32.2266 25.0042 32.2266H19.1406C18.3317 32.2266 17.6758 32.8824 17.6758 33.6914C17.6758 34.5004 18.3317 35.1562 19.1406 35.1549L29.5711 35.1562C29.5719 35.1576 29.5726 35.1576 29.5734 35.1576C31.5296 35.1576 33.369 34.3958 34.7521 33.0126L41.2846 26.4824C42.6863 25.0806 44.752 24.8524 46.3577 25.657L34.496 38.628Z" fill="#8DC63F"/>
<path d="M17.8846 8.07808L20.0691 11.7189L17.8846 15.3597C17.2994 16.3351 18.0037 17.5783 19.1406 17.5783H23.5847L26.6736 22.7264C27.2402 23.6708 28.6155 23.6768 29.1858 22.7264L32.2747 17.5783H36.7188C37.8561 17.5783 38.5599 16.3348 37.9748 15.3597L35.7903 11.7189L37.9749 8.07808C38.5601 7.10269 37.8557 5.85952 36.7188 5.85952H32.2747L29.1857 0.711379C28.6191 -0.232957 27.2439 -0.239012 26.6735 0.711379L23.5847 5.85952H19.1406C18.0033 5.85952 17.2996 7.10318 17.8846 8.07808ZM23.0335 10.9653L21.7278 8.78921H24.4141C24.9286 8.78921 25.4054 8.51919 25.6701 8.07798L27.9297 4.31216L30.1893 8.07808C30.454 8.51929 30.9308 8.78931 31.4453 8.78931H34.1314L32.8258 10.9653C32.5475 11.4292 32.5475 12.0087 32.8258 12.4727L34.1315 14.6486H31.4454C30.9309 14.6486 30.4541 14.9186 30.1894 15.3598L27.9297 19.1257L25.6701 15.3598C25.4054 14.9186 24.9286 14.6486 24.4141 14.6486H21.7279L23.0336 12.4726C23.3119 12.0087 23.3119 11.4292 23.0335 10.9653Z" fill="#8DC63F"/>
<path d="M20.0724 18.9695L18.0008 21.041C17.4288 21.6131 17.4288 22.5406 18.0008 23.1126C18.5728 23.6847 19.5003 23.6848 20.0724 23.1126L22.144 21.041C22.7161 20.469 22.7161 19.5415 22.144 18.9695C21.5719 18.3974 20.6444 18.3974 20.0724 18.9695Z" fill="#8DC63F"/>
<path d="M35.7872 4.57234L37.8588 2.50076C38.4309 1.92869 38.4309 1.00125 37.8588 0.429175C37.2868 -0.142896 36.3593 -0.142896 35.7872 0.429175L33.7156 2.50076C33.1435 3.07283 33.1435 4.00027 33.7156 4.57234C34.2875 5.14441 35.2151 5.14451 35.7872 4.57234Z" fill="#8DC63F"/>
<path d="M20.0724 4.57234C20.6444 5.14441 21.5719 5.14451 22.144 4.57234C22.7161 4.00027 22.7161 3.07283 22.144 2.50076L20.0724 0.429175C19.5004 -0.142896 18.5729 -0.142896 18.0008 0.429175C17.4288 1.00125 17.4288 1.92869 18.0008 2.50076L20.0724 4.57234Z" fill="#8DC63F"/>
<path d="M35.7872 18.9695C35.2152 18.3974 34.2877 18.3974 33.7156 18.9695C33.1435 19.5415 33.1435 20.469 33.7156 21.041L35.7872 23.1126C36.3592 23.6847 37.2867 23.6848 37.8588 23.1126C38.4309 22.5406 38.4309 21.6131 37.8588 21.041L35.7872 18.9695Z" fill="#8DC63F"/>
<path d="M13.2813 13.1836H16.211C17.02 13.1836 17.6758 12.5277 17.6758 11.7188C17.6758 10.9098 17.02 10.2539 16.211 10.2539H13.2813C12.4723 10.2539 11.8165 10.9098 11.8165 11.7188C11.8165 12.5277 12.4723 13.1836 13.2813 13.1836Z" fill="#8DC63F"/>
<path d="M39.6485 13.1836H42.5782C43.3872 13.1836 44.043 12.5277 44.043 11.7188C44.043 10.9098 43.3872 10.2539 42.5782 10.2539H39.6485C38.8395 10.2539 38.1837 10.9098 38.1837 11.7188C38.1837 12.5277 38.8395 13.1836 39.6485 13.1836Z" fill="#8DC63F"/>
</svg>
