<svg width="40" height="40" viewBox="0 0 40 40" fill="none" xmlns="http://www.w3.org/2000/svg">
<path d="M36.478 35.537H14.796C13.8266 35.537 12.8903 35.1315 12.2272 34.4246L0.972854 22.4275C0.335408 21.7589 -0.00984851 20.8822 0.000405096 19.9582C0.0106587 19.0322 0.376971 18.1616 1.03179 17.5067L1.46753 17.071C2.14317 16.3954 3.04111 16.0288 3.99696 16.0395C4.95243 16.0501 5.84238 16.4361 6.50291 17.1264C6.50589 17.1295 6.50878 17.1325 6.5116 17.1357L16.5042 27.8078C16.7254 28.0439 17.0377 28.1793 17.3613 28.1793H36.478C38.4201 28.1793 40.0002 29.7594 40.0002 31.7016V32.0147C40.0002 33.9569 38.4201 35.537 36.478 35.537ZM3.95767 18.3875C3.64419 18.3875 3.34997 18.5093 3.12783 18.7315L2.69209 19.1671C2.24438 19.6148 2.23624 20.3514 2.67386 20.809C2.67652 20.8117 2.6791 20.8144 2.68176 20.8172L13.9396 32.818C14.1606 33.0536 14.4728 33.1887 14.7959 33.1887H36.478C37.1253 33.1887 37.652 32.662 37.652 32.0147V31.7016C37.652 31.0542 37.1253 30.5275 36.478 30.5275H17.3614C16.3907 30.5275 15.4535 30.1212 14.7903 29.4126L4.80246 18.7458C4.58267 18.5182 4.28766 18.3911 3.97105 18.3876C3.96667 18.3875 3.96213 18.3875 3.95767 18.3875Z" fill="white"/>
<path d="M8.77043 39.9983C8.41101 39.9983 8.0562 39.8338 7.82593 39.5228C7.44013 39.0017 7.54978 38.2664 8.07092 37.8806C10.9458 35.752 12.4476 34.639 13.2329 34.057C13.6644 33.7373 13.8802 33.5773 13.9884 33.4975C14.174 33.3606 14.4257 33.1742 14.8386 33.1893C15.4675 33.2115 15.9705 33.7283 15.9705 34.3626C15.9705 34.7742 15.7588 35.1363 15.4383 35.346C15.3638 35.4004 15.1343 35.5705 14.631 35.9436C13.8457 36.5257 12.3436 37.6389 9.46807 39.7678C9.25807 39.9232 9.01315 39.9983 8.77043 39.9983ZM14.7414 35.5355C14.7866 35.5376 14.8302 35.537 14.872 35.5344C14.8291 35.537 14.7852 35.5375 14.7414 35.5355ZM14.7396 35.5354C14.7401 35.5354 14.7406 35.5355 14.7411 35.5355C14.7406 35.5355 14.7401 35.5354 14.7396 35.5354ZM14.7376 35.5353H14.7378C14.7378 35.5353 14.7377 35.5353 14.7376 35.5353Z" fill="white"/>
<path d="M36.3212 39.9985C35.6728 39.9985 35.1472 39.4728 35.1472 38.8244V34.3629C35.1472 33.7145 35.6728 33.1888 36.3212 33.1888C36.9696 33.1888 37.4953 33.7145 37.4953 34.3629V38.8244C37.4953 39.4728 36.9696 39.9985 36.3212 39.9985Z" fill="white"/>
<path d="M20.0391 11.1203C19.8131 11.1203 19.5874 11.0534 19.3894 10.9189C19.3774 10.9111 17.752 9.86371 15.6574 9.86371C13.5628 9.86371 11.9375 10.9111 11.9213 10.9216C11.561 11.1618 11.0999 11.1829 10.7181 10.9785C10.3363 10.7742 10.1 10.375 10.1 9.94198C10.1 4.46076 14.5593 0.00146484 20.0406 0.00146484C25.5218 0.00146484 29.9811 4.46076 29.9811 9.94198C29.9811 10.375 29.7427 10.7728 29.361 10.9771C28.9807 11.1808 28.5194 11.1593 28.1596 10.9215C28.1306 10.9027 26.5099 9.86371 24.4238 9.86371C22.3291 9.86371 20.7038 10.9111 20.6877 10.9216C20.4894 11.0539 20.2641 11.1203 20.0391 11.1203ZM15.6574 7.51555C17.5909 7.51555 19.1926 8.1656 20.0406 8.59563C20.8886 8.1656 22.4904 7.51555 24.4238 7.51555C25.5506 7.51555 26.5649 7.73636 27.3828 8.00577C26.5247 4.7542 23.5582 2.34962 20.0407 2.34962C16.5233 2.34962 13.5567 4.75413 12.6984 8.00577C13.5164 7.73644 14.5306 7.51555 15.6574 7.51555Z" fill="white"/>
<path d="M20.0407 30.5284C19.3923 30.5284 18.8666 30.0028 18.8666 29.3544V1.17652C18.8666 0.528114 19.3923 0.00244141 20.0407 0.00244141C20.6891 0.00244141 21.2148 0.528114 21.2148 1.17652V29.3544C21.2148 30.0028 20.6891 30.5284 20.0407 30.5284Z" fill="white"/>
</svg>
